<svg width="18" height="20" viewBox="0 0 18 20" fill="none" xmlns="http://www.w3.org/2000/svg">
<path d="M0.75 12.45C0.75 9.92196 0.75 8.65795 1.35671 7.74994C1.61936 7.35686 1.95686 7.01935 2.34995 6.7567C3.25795 6.14999 4.52197 6.14999 7.05 6.14999H10.65C13.178 6.14999 14.442 6.14999 15.3501 6.7567C15.7431 7.01935 16.0806 7.35686 16.3433 7.74994C16.95 8.65795 16.95 9.92196 16.95 12.45C16.95 14.978 16.95 16.242 16.3433 17.15C16.0806 17.5431 15.7431 17.8806 15.3501 18.1433C14.442 18.75 13.178 18.75 10.65 18.75H7.05C4.52197 18.75 3.25795 18.75 2.34995 18.1433C1.95686 17.8806 1.61936 17.5431 1.35671 17.15C0.75 16.242 0.75 14.978 0.75 12.45Z" stroke="#9E9E9E" stroke-width="1.5" stroke-linecap="round" stroke-linejoin="round"/>
<path d="M15.1503 6.15C15.1341 5.03419 15.0513 4.40159 14.6267 3.9772C14.0992 3.45 13.2502 3.45 11.5522 3.45H6.14834C4.45036 3.45 3.60137 3.45 3.07387 3.9772C2.64926 4.40159 2.56644 5.03419 2.55029 6.15" stroke="#9E9E9E" stroke-width="1.5" stroke-linecap="round" stroke-linejoin="round"/>
<path d="M13.3501 3.45C13.3501 2.61131 13.3501 2.19196 13.2131 1.86117C13.0304 1.42012 12.68 1.06971 12.2389 0.887017C11.9081 0.75 11.4888 0.75 10.6501 0.75H7.0501C6.2114 0.75 5.79206 0.75 5.46127 0.887017C5.02022 1.06971 4.6698 1.42012 4.48711 1.86117C4.3501 2.19196 4.3501 2.61131 4.3501 3.45" stroke="#9E9E9E" stroke-width="1.5" stroke-linecap="round" stroke-linejoin="round"/>
</svg>
