<svg width="20" height="20" viewBox="0 0 20 20" fill="none" xmlns="http://www.w3.org/2000/svg">
<path d="M6.81116 2.57633L0.988623 7.67134C0.48931 8.10826 0.824091 8.88428 1.5119 8.88428C1.9321 8.88428 2.27275 9.19892 2.27275 9.58705V12.8306C2.27275 15.621 2.27275 17.0162 3.21127 17.8831C4.1498 18.75 5.66033 18.75 8.6814 18.75H10.8176C13.8387 18.75 15.3492 18.75 16.2878 17.8831C17.2263 17.0162 17.2263 15.621 17.2263 12.8306V9.58705C17.2263 9.19893 17.5669 8.88428 17.9871 8.88428C18.6749 8.88428 19.0097 8.10826 18.5104 7.67134L12.6879 2.57633C11.2964 1.35878 10.6007 0.75 9.74951 0.75C8.89829 0.75 8.20258 1.35878 6.81116 2.57633Z" stroke="#EBEBEB" stroke-width="1.5" stroke-linecap="round" stroke-linejoin="round"/>
</svg>
