<svg width="22" height="18" viewBox="0 0 22 18" fill="none" xmlns="http://www.w3.org/2000/svg">
<path d="M12.75 11.5651V5.93799C12.75 2.79279 12.75 1.22019 11.8247 0.828824C10.8994 0.437458 9.81035 1.54945 7.63232 3.77344C6.50439 4.92517 5.86085 5.18021 4.25604 5.18021C2.85257 5.18021 2.15084 5.18021 1.64675 5.52414C0.600349 6.23808 0.758524 7.63352 0.758524 8.75153C0.758524 9.86954 0.600349 11.265 1.64675 11.9789C2.15084 12.3228 2.85257 12.3228 4.25604 12.3228C5.86085 12.3228 6.50439 12.5779 7.63232 13.7296C9.81035 15.9536 10.8994 17.0656 11.8247 16.6742C12.75 16.2829 12.75 14.7103 12.75 11.5651Z" stroke="#EBEBEB" stroke-width="1.5" stroke-linecap="round" stroke-linejoin="round"/>
<path d="M16.75 6.75153L20.75 10.7515M16.75 10.7515L20.75 6.75153" stroke="#EBEBEB" stroke-width="1.5" stroke-linecap="round"/>
</svg>
