<svg width="167" height="36" viewBox="0 0 167 36" fill="none" xmlns="http://www.w3.org/2000/svg">
<rect y="4" width="28" height="28" rx="14" fill="url(#paint0_linear_351_2491)"/>
<path d="M13.8804 8.33729L13.9127 8.34249C15.6344 8.62982 15.5783 11.3421 15.4289 12.5005C15.2253 14.0783 14.3529 15.5146 12.3536 15.1637C10.9046 14.6874 10.5116 13.462 10.4742 12.1899C10.4326 10.774 12.2059 8.22998 13.8804 8.33729Z" fill="white"/>
<path d="M19.3833 9.81091C20.8635 10.0668 21.1633 11.964 21.2415 13.0656C21.3575 14.7006 20.1336 16.7359 18.1525 16.6775C17.9164 16.6703 17.5872 16.5817 17.3829 16.4784C14.7772 15.1606 16.5026 11.8331 17.8921 10.4514C18.3028 10.043 18.8183 9.79095 19.3833 9.81091Z" fill="white"/>
<path d="M22.5744 15.1033C22.9029 15.1583 23.116 15.2586 23.3177 15.5455C23.7492 16.1593 23.7853 17.1629 23.6716 17.8723C23.5042 18.9158 23.1666 19.7316 22.2873 20.3595C21.8005 20.707 21.2295 20.8809 20.6357 20.7839C20.3788 20.7285 20.1416 20.6049 19.9492 20.4261C19.5246 20.0371 19.3746 19.6775 19.3425 19.1052C19.2613 17.6577 21.0889 15.1672 22.5744 15.1033Z" fill="white"/>
<path d="M7.91955 10.1747C8.19377 10.2284 8.36515 10.2763 8.58082 10.4816C9.26191 11.1299 9.49373 12.4086 9.53711 13.3043C9.5786 14.1612 9.45966 15.0649 8.85588 15.7095C8.49811 16.0915 8.06275 16.2319 7.55226 16.2528C6.44343 16.1497 5.81644 15.0711 5.68175 14.0599C5.50675 12.7462 6.44478 10.3793 7.91955 10.1747Z" fill="white"/>
<path d="M9 24.7639V19.2361C9 17.7493 10.5646 16.7823 11.8944 17.4472L17.4223 20.2111C18.8964 20.9482 18.8964 23.0518 17.4223 23.7889L11.8944 26.5528C10.5646 27.2177 9 26.2507 9 24.7639Z" fill="white"/>
<path d="M45.112 26L39.016 18.536V26H35.656V9.248H39.016V16.76L45.112 9.248H49.168L42.256 17.552L49.36 26H45.112ZM53.2741 11.12C52.6821 11.12 52.1861 10.936 51.7861 10.568C51.4021 10.184 51.2101 9.712 51.2101 9.152C51.2101 8.592 51.4021 8.128 51.7861 7.76C52.1861 7.376 52.6821 7.184 53.2741 7.184C53.8661 7.184 54.3541 7.376 54.7381 7.76C55.1381 8.128 55.3381 8.592 55.3381 9.152C55.3381 9.712 55.1381 10.184 54.7381 10.568C54.3541 10.936 53.8661 11.12 53.2741 11.12ZM54.9301 12.704V26H51.5701V12.704H54.9301ZM62.1618 15.464V21.896C62.1618 22.344 62.2658 22.672 62.4738 22.88C62.6978 23.072 63.0658 23.168 63.5778 23.168H65.1378V26H63.0258C60.1938 26 58.7778 24.624 58.7778 21.872V15.464H57.1938V12.704H58.7778V9.416H62.1618V12.704H65.1378V15.464H62.1618ZM71.4664 15.464V21.896C71.4664 22.344 71.5704 22.672 71.7784 22.88C72.0024 23.072 72.3704 23.168 72.8824 23.168H74.4424V26H72.3304C69.4984 26 68.0824 24.624 68.0824 21.872V15.464H66.4984V12.704H68.0824V9.416H71.4664V12.704H74.4424V15.464H71.4664ZM89.2191 19.064C89.2191 19.544 89.1871 19.976 89.1231 20.36H79.4031C79.4831 21.32 79.8191 22.072 80.4111 22.616C81.0031 23.16 81.7311 23.432 82.5951 23.432C83.8431 23.432 84.7311 22.896 85.2591 21.824H88.8831C88.4991 23.104 87.7631 24.16 86.6751 24.992C85.5871 25.808 84.2511 26.216 82.6671 26.216C81.3871 26.216 80.2351 25.936 79.2111 25.376C78.2031 24.8 77.4111 23.992 76.8351 22.952C76.2751 21.912 75.9951 20.712 75.9951 19.352C75.9951 17.976 76.2751 16.768 76.8351 15.728C77.3951 14.688 78.1791 13.888 79.1871 13.328C80.1951 12.768 81.3551 12.488 82.6671 12.488C83.9311 12.488 85.0591 12.76 86.0511 13.304C87.0591 13.848 87.8351 14.624 88.3791 15.632C88.9391 16.624 89.2191 17.768 89.2191 19.064ZM85.7391 18.104C85.7231 17.24 85.4111 16.552 84.8031 16.04C84.1951 15.512 83.4511 15.248 82.5711 15.248C81.7391 15.248 81.0351 15.504 80.4591 16.016C79.8991 16.512 79.5551 17.208 79.4271 18.104H85.7391ZM99.0396 12.512C100.624 12.512 101.904 13.016 102.88 14.024C103.856 15.016 104.344 16.408 104.344 18.2V26H100.984V18.656C100.984 17.6 100.72 16.792 100.192 16.232C99.6636 15.656 98.9436 15.368 98.0316 15.368C97.1036 15.368 96.3676 15.656 95.8236 16.232C95.2956 16.792 95.0316 17.6 95.0316 18.656V26H91.6716V12.704H95.0316V14.36C95.4796 13.784 96.0476 13.336 96.7356 13.016C97.4396 12.68 98.2076 12.512 99.0396 12.512ZM118.939 9.248V11.96H114.475V26H111.115V11.96H106.651V9.248H118.939ZM133.942 12.704V26H130.558V24.32C130.126 24.896 129.558 25.352 128.854 25.688C128.166 26.008 127.414 26.168 126.598 26.168C125.558 26.168 124.638 25.952 123.838 25.52C123.038 25.072 122.406 24.424 121.942 23.576C121.494 22.712 121.27 21.688 121.27 20.504V12.704H124.63V20.024C124.63 21.08 124.894 21.896 125.422 22.472C125.95 23.032 126.67 23.312 127.582 23.312C128.51 23.312 129.238 23.032 129.766 22.472C130.294 21.896 130.558 21.08 130.558 20.024V12.704H133.942ZM140.618 14.648C141.05 14.008 141.642 13.488 142.394 13.088C143.162 12.688 144.034 12.488 145.01 12.488C146.146 12.488 147.17 12.768 148.082 13.328C149.01 13.888 149.738 14.688 150.266 15.728C150.81 16.752 151.082 17.944 151.082 19.304C151.082 20.664 150.81 21.872 150.266 22.928C149.738 23.968 149.01 24.776 148.082 25.352C147.17 25.928 146.146 26.216 145.01 26.216C144.018 26.216 143.146 26.024 142.394 25.64C141.658 25.24 141.066 24.728 140.618 24.104V26H137.258V8.24H140.618V14.648ZM147.65 19.304C147.65 18.504 147.482 17.816 147.146 17.24C146.826 16.648 146.394 16.2 145.85 15.896C145.322 15.592 144.746 15.44 144.122 15.44C143.514 15.44 142.938 15.6 142.394 15.92C141.866 16.224 141.434 16.672 141.098 17.264C140.778 17.856 140.618 18.552 140.618 19.352C140.618 20.152 140.778 20.848 141.098 21.44C141.434 22.032 141.866 22.488 142.394 22.808C142.938 23.112 143.514 23.264 144.122 23.264C144.746 23.264 145.322 23.104 145.85 22.784C146.394 22.464 146.826 22.008 147.146 21.416C147.482 20.824 147.65 20.12 147.65 19.304ZM165.883 19.064C165.883 19.544 165.851 19.976 165.787 20.36H156.067C156.147 21.32 156.483 22.072 157.075 22.616C157.667 23.16 158.395 23.432 159.259 23.432C160.507 23.432 161.395 22.896 161.923 21.824H165.547C165.163 23.104 164.427 24.16 163.339 24.992C162.251 25.808 160.915 26.216 159.331 26.216C158.051 26.216 156.899 25.936 155.875 25.376C154.867 24.8 154.075 23.992 153.499 22.952C152.939 21.912 152.659 20.712 152.659 19.352C152.659 17.976 152.939 16.768 153.499 15.728C154.059 14.688 154.843 13.888 155.851 13.328C156.859 12.768 158.019 12.488 159.331 12.488C160.595 12.488 161.723 12.76 162.715 13.304C163.723 13.848 164.499 14.624 165.043 15.632C165.603 16.624 165.883 17.768 165.883 19.064ZM162.403 18.104C162.387 17.24 162.075 16.552 161.467 16.04C160.859 15.512 160.115 15.248 159.235 15.248C158.403 15.248 157.699 15.504 157.123 16.016C156.563 16.512 156.219 17.208 156.091 18.104H162.403Z" fill="#EBEBEB"/>
<defs>
<linearGradient id="paint0_linear_351_2491" x1="0" y1="4" x2="28" y2="32" gradientUnits="userSpaceOnUse">
<stop stop-color="#FFB0BC"/>
<stop offset="1" stop-color="#FF69B4"/>
</linearGradient>
</defs>
</svg>
